<svg width="20" height="20" viewBox="0 0 20 20" fill="none" xmlns="http://www.w3.org/2000/svg">
<path fill-rule="evenodd" clip-rule="evenodd" d="M9.99878 20.0002C5.28473 20.0002 2.92771 20.0002 1.46325 18.5358C-0.0012207 17.0713 -0.0012207 14.7143 -0.0012207 10.0002C-0.0012207 5.2862 -0.0012207 2.92918 1.46325 1.46471C2.92771 0.000244141 5.28473 0.000244141 9.99878 0.000244141C14.7128 0.000244141 17.0698 0.000244141 18.5343 1.46471C19.9988 2.92918 19.9988 5.2862 19.9988 10.0002C19.9988 14.7143 19.9988 17.0713 18.5343 18.5358C17.0698 20.0002 14.7128 20.0002 9.99878 20.0002ZM13.7488 10.0002C13.7488 10.4145 13.413 10.7502 12.9988 10.7502H6.99878C6.58457 10.7502 6.24878 10.4145 6.24878 10.0002C6.24878 9.58603 6.58457 9.25024 6.99878 9.25024H12.9988C13.413 9.25024 13.7488 9.58603 13.7488 10.0002Z" fill="#212121"/>
</svg>
